<svg xmlns="http://www.w3.org/2000/svg" viewBox="0 0 1845.04 1354.98"><defs><style>.cls-1{fill:#45446c;mix-blend-mode:multiply;opacity:.29;}.cls-2{fill:#de5840;}.cls-3{fill:#20212e;}.cls-4{fill:#fff;}.cls-5{stroke:#b4c5d6;stroke-linecap:round;stroke-linejoin:round;stroke-width:2.27px;}.cls-5,.cls-6,.cls-7{fill:none;}.cls-8{fill:#89a1de;}.cls-9{isolation:isolate;}.cls-6{stroke:#0d367f;stroke-width:2.67px;}.cls-6,.cls-7{stroke-miterlimit:10;}.cls-10{fill:#7b90c7;}.cls-11{fill:#799ce0;}.cls-12{fill:#ba422d;}.cls-13{fill:#e4e4ef;}.cls-14{fill:#6c63ff;}.cls-15{fill:#b0c7f2;}.cls-16{fill:#88a8e6;}.cls-17{fill:#bbd0f3;}.cls-7{stroke:#6c63ff;stroke-width:5px;}.cls-18{fill:#dfeefa;}.cls-19{fill:#24386b;}.cls-20{fill:#35599c;}.cls-21{fill:#d4e8fc;}.cls-22{fill:#0b2d4e;}.cls-23{fill:#172f59;}.cls-24{fill:#4d69ba;}.cls-25{fill:#8fa8e8;}</style></defs><g class="cls-9"><g id="Layer_2"><g id="image"><g><path class="cls-13" d="M294.7,1160.98C125.29,1116.14,2.56,966.26,.04,791.04c-.81-56.45,10.66-112.49,44.37-158.75,117.98-161.9,194.74-113.99,315.41-243.76S476.15,56.9,810.25,3.75c297.42-47.31,504.63,368.71,652.45,350.76,0,0,305.27-43.57,374.99,290.73,69.72,334.3-367.83,664.7-844.19,149.09-313.98-339.84-103.98,524.09-698.8,366.64Z"></path><circle class="cls-7" cx="1616.83" cy="908.05" r="16.33" transform="translate(518.03 2401.81) rotate(-82.98)"></circle><circle class="cls-7" cx="809.84" cy="179.62" r="16.33" transform="translate(-7.68 320.24) rotate(-22.27)"></circle><circle class="cls-7" cx="118.82" cy="635.98" r="16.33" transform="translate(-527.9 617.47) rotate(-77.78)"></circle><path class="cls-21" d="M1310.81,1349.25l-730.74-198.57c-29.91-8.13-38.03-26.08-18.15-40.09l127.14-89.63c19.88-14.02,60.24-18.79,90.15-10.66l730.74,198.57c29.91,8.13,38.03,26.08,18.15,40.09l-127.14,89.63c-19.88,14.02-60.24,18.79-90.15,10.66Z"></path><path class="cls-16" d="M1387.56,584.35l-849.38-228.83c-7.67-2.38-13.35-3.02-20.42,.4-.15,.07-5.63,5.91-5.75,6.03-2.46,2.39-12.55,13.58-13.26,14.02,7.84-5.82,9.52-5.12,18.54-2.22l869.32,238.86c1.29,.35,3.71-27.51,.95-28.27Zm-855.15-227.95h0s0,0,0,0h0Z"></path><path class="cls-16" d="M1410.22,609.78s0-.06-.01-.09c-.06-.32-.12-.64-.2-.95-.07-.32-.15-.63-.24-.95-.01-.04-.03-.09-.04-.13-.01-.04-.03-.09-.04-.13-.06-.22-.12-.44-.19-.66-.1-.31-.2-.62-.31-.92-.05-.14-.11-.29-.16-.43-.02-.06-.05-.13-.07-.19-.04-.1-.07-.2-.11-.3-.12-.3-.25-.61-.38-.91-.12-.29-.26-.57-.39-.86,0-.01,0-.02-.01-.03,0,0,0-.02-.01-.02-.14-.3-.29-.61-.45-.91-.15-.3-.31-.59-.48-.89-.04-.08-.09-.16-.14-.23-.03-.06-.07-.11-.1-.17-.09-.16-.18-.32-.27-.47-.17-.28-.34-.56-.52-.84-.13-.21-.27-.42-.41-.63-.02-.03-.04-.06-.06-.09-.02-.03-.04-.06-.06-.09-.18-.26-.36-.52-.55-.78-.18-.25-.36-.5-.55-.74-.08-.1-.16-.21-.24-.31-.03-.04-.07-.09-.1-.13-.08-.1-.15-.19-.23-.29-.2-.25-.41-.51-.62-.75-.21-.25-.42-.5-.64-.74-.02-.02-.04-.05-.06-.07-.03-.04-.07-.07-.1-.11-.23-.26-.47-.52-.71-.77-.23-.24-.46-.47-.7-.7-.15-.16-.31-.31-.46-.47-.07-.07-.14-.15-.22-.22-.39-.37-.8-.74-1.21-1.1-.13-.12-.26-.24-.39-.36-.02-.02-.04-.04-.06-.05-.52-.45-1.06-.89-1.61-1.32-.08-.06-.16-.12-.24-.18-.07-.05-.14-.11-.22-.16-.19-.15-.38-.29-.58-.44-.32-.24-.65-.47-.98-.7-.13-.09-.25-.17-.38-.26-.07-.04-.13-.09-.2-.13-.12-.08-.24-.16-.36-.24-.32-.21-.65-.41-.98-.62-.25-.15-.5-.3-.75-.45-.05-.03-.09-.05-.14-.08-.04-.02-.08-.05-.12-.07-.35-.2-.7-.4-1.06-.59-.37-.2-.74-.39-1.11-.58,0,0-.02,0-.02-.01,0,0-.02,0-.03-.01-.36-.18-.72-.35-1.09-.52-.38-.18-.77-.35-1.16-.51-.05-.02-.1-.04-.14-.06-.05-.02-.11-.04-.16-.07-.28-.12-.56-.23-.85-.34-.38-.15-.77-.29-1.16-.43-.11-.04-.22-.07-.32-.11-.04-.01-.07-.03-.11-.04-.01,0-.02,0-.03,0-.23-.08-.45-.16-.68-.23-.38-.12-.77-.24-1.15-.35-.09-.03-6.13-1.67-6.22-1.7l-28.5,19.74s8.15,2.25,8.54,2.38c.39,.12,.77,.25,1.15,.38,.39,.14,.77,.28,1.16,.43,.39,.15,.77,.31,1.15,.47,.16,.07,.32,.14,.48,.21,.61,.27,1.22,.55,1.81,.84h0s0,0,0,0c.6,.3,1.2,.62,1.78,.95,.07,.04,.15,.08,.22,.12,.56,.32,1.11,.65,1.65,.99,.08,.05,.17,.1,.25,.16,.53,.34,1.05,.69,1.56,1.05,.09,.06,.18,.13,.27,.19,.5,.36,1,.73,1.49,1.11,.25,.2,.49,.4,.74,.6,.3,.24,.6,.49,.89,.74,.34,.29,.66,.59,.98,.89,.21,.2,.43,.39,.64,.59,.18,.17,.35,.36,.53,.53,.31,.31,.63,.63,.93,.95,.08,.09,.16,.17,.24,.26,.41,.45,.81,.9,1.19,1.35,.03,.04,.06,.08,.09,.11,.4,.48,.79,.98,1.16,1.47,.04,.05,.08,.1,.11,.15,.36,.49,.71,.98,1.04,1.48,.04,.06,.08,.13,.13,.19,.32,.49,.63,.99,.92,1.49,.04,.08,.09,.15,.13,.23,.29,.5,.56,1,.81,1.5,.04,.08,.08,.16,.12,.23,.25,.51,.49,1.02,.7,1.53,.03,.07,.06,.15,.09,.22,.22,.52,.41,1.04,.6,1.56,.02,.07,.05,.14,.07,.21,.18,.53,.34,1.06,.48,1.59,.07,.27,.14,.53,.2,.8,.07,.32,.14,.64,.2,.95,.06,.33,.12,.67,.16,1,.05,.34,.09,.67,.12,1.01,.03,.36,.06,.73,.07,1.09,.01,.28,.02,.57,.02,.85,0,0,0,.56,0,1.53l-3.17,647.48,20.3-20.24c4.72-4.71,7.38-10.52,7.41-16.19l2.8-625.81c0-2.73,.01-6.85,.01-6.85,0-.28,0-.56-.02-.85,0-.24-.03-.48-.05-.72,0-.01,0-.03,0-.04,0-.03,0-.06-.01-.1,0-.08,0-.16-.02-.24-.03-.34-.07-.67-.12-1.01-.04-.27-.08-.53-.13-.8,0-.04-.01-.08-.02-.12Z"></path><path class="cls-10" d="M1155.24,1139.7s-4.5,3.29-4.81,3.75c-.14,.21-1.6,2.19-2.28,2.96-.51,.58-2.22,2.32-2.54,2.62-.92,.87-199.66,157.65-199.66,157.65l4.83,31.2,195.86-155.57c1.88-.35,2.88-1.21,3.8-2.08,.32-.3,.57-.6,.87-.9,.57-.57,1.16-1.15,1.67-1.72,0,0,.01-.01,.01-.02,.68-.77,1.27-1.55,1.83-2.32,.15-.21,.29-.42,.44-.63,.16-.24,.35-.48,.5-.72,.14-.21,.22-.43,.34-.64,.36-.61,.68-1.22,.97-1.82,.1-.21,.24-.42,.33-.63,.07-.17,.1-.33,.17-.5,.21-.53,.39-1.06,.55-1.59,.08-.25,.2-.51,.26-.76,.03-.13,.03-.25,.06-.38,.11-.5,.18-1,.24-1.49,.03-.28,.12-.56,.13-.84,0-.1-.01-.19,0-.29,.02-.52,0-1.04-.04-1.55-.02-.28,.01-.56-.02-.83-.02-.13-.04-.27-.06-.4l-3.45-22.49Z"></path><path class="cls-8" d="M945.14,1307.28c-1.32,1.01-2.72,1.97-4.19,2.9-.45,.28-.9,.57-1.36,.84-1.62,.98-3.29,1.91-5.05,2.79-.1,.05-.19,.1-.28,.15-1.47,.72-2.98,1.41-4.52,2.06-.22,.09-.46,.17-.68,.27-1.33,.55-2.68,1.08-4.06,1.57-.17,.06-.35,.11-.52,.17-1.77,.62-3.58,1.19-5.41,1.71-.67,.19-1.35,.38-2.03,.55-1.07,.28-2.14,.55-3.22,.8-.76,.18-1.52,.35-2.29,.51-.93,.19-1.87,.37-2.81,.54-.81,.15-1.62,.29-2.43,.41-.87,.14-1.75,.25-2.62,.37-.83,.11-1.67,.21-2.5,.3-.87,.09-1.73,.16-2.6,.23-.82,.06-1.64,.13-2.46,.17-.93,.05-1.86,.08-2.78,.1-.77,.02-1.54,.04-2.3,.04-1.13,0-2.24-.04-3.35-.08-.62-.03-1.25-.04-1.87-.08-1.99-.13-3.95-.33-5.86-.6-.95-.14-1.88-.31-2.8-.48-.47-.09-.96-.16-1.43-.26-1.41-.3-2.8-.64-4.14-1.03l-179.17-52.62c-11.07-3.25-15.75,.4-16.8-6.39l3.33,21.72c1.05,6.78,7.22,12.61,18.3,15.87l179.17,52.62c1.34,.39,2.72,.73,4.14,1.03,.47,.1,.96,.17,1.43,.26,.81,.15,1.6,.32,2.43,.44,.12,.02,.25,.02,.37,.04,1.91,.27,3.86,.47,5.86,.6,.13,0,.25,.03,.39,.04,.49,.03,.99,.02,1.48,.04,1.11,.05,2.22,.08,3.35,.08,.25,0,.5,.02,.76,.02,.51,0,1.04-.04,1.55-.05,.92-.02,1.84-.05,2.78-.1,.31-.02,.62-.01,.94-.03,.51-.03,1.02-.1,1.53-.14,.86-.07,1.72-.14,2.59-.23,.34-.04,.67-.05,1.01-.09,.5-.06,1-.15,1.51-.21,.87-.11,1.74-.23,2.61-.37,.35-.05,.7-.09,1.04-.15,.47-.08,.93-.19,1.4-.27,.94-.17,1.87-.35,2.8-.54,.37-.08,.75-.14,1.13-.22,.39-.09,.77-.2,1.16-.29,1.08-.25,2.15-.52,3.21-.8,.43-.11,.87-.2,1.29-.32,.25-.07,.49-.16,.74-.24,1.83-.53,3.64-1.09,5.41-1.71,.14-.05,.29-.09,.43-.14,.03-.01,.06-.02,.09-.04,1.38-.49,2.73-1.02,4.06-1.57,.22-.09,.46-.17,.68-.27,1.55-.65,3.06-1.34,4.53-2.07,.02,0,.04-.02,.06-.03,.07-.04,.14-.08,.21-.12,1.76-.88,3.43-1.82,5.06-2.79,.46-.28,.91-.56,1.36-.84,1.46-.93,2.86-1.89,4.19-2.9,.16-.12,.35-.23,.5-.35,.11-.08,.21-.16,.31-.25l-4.83-31.2c-.26,.21-.55,.39-.82,.6Z"></path><path class="cls-15" d="M1136.37,1124.65c21.52,6.32,24.65,22.5,7.04,36.48l-195.86,155.57c-18.33,14.56-51.97,21.13-74.37,14.55l-179.17-52.62c-22.41-6.58-24.75-23.72-5.17-37.92l209.27-151.63c18.81-13.63,50.94-19.45,72.47-13.13l165.8,48.69Z"></path><polygon class="cls-25" points="760.01 1188.79 1018.7 1261.17 1073.43 1217.53 824.28 1143.51 760.01 1188.79"></polygon><polygon class="cls-1" points="1018.7 1261.17 1021.9 1281.39 1090.74 1227.86 1087.68 1208.46 1018.7 1261.17"></polygon><path class="cls-15" d="M1393.65,1258.67c.08,19.98-24.94,36.59-46.29,30.72l-828.09-227.54c-15.36-4.22-27.78-18.06-27.75-30.93l1.15-583.77c.03-12.87,12.48-19.88,27.84-15.66l870.76,239.26,2.38,587.91Z"></path><path class="cls-20" d="M1393.68,1168.03c-.06,30.34-36.96,55.01-69.14,46.23l-806.46-220.19c-15.36-4.22-27.78-18.06-27.75-30.93l1.15-583.77c.03-12.87,12.48-19.88,27.84-15.66l838.39,230.37c21.45,5.89,37.1,26.12,37.06,47.89l-1.09,526.06Z"></path><path class="cls-22" d="M1358.64,1140.76c-.16,19.87-23.61,35.88-44.36,30.29l-770.51-207.43c-14.58-3.94-26.34-16.07-26.28-27.1l2.66-500.32c.06-11.03,11.91-16.77,26.49-12.83l781.91,209.36c19.61,5.25,34.05,24.12,33.89,44.28l-3.81,463.76Z"></path><path class="cls-4" d="M940.95,503.68c-.25,4.65-3.85,7.51-8.04,6.4-4.19-1.11-7.38-5.79-7.13-10.43,.25-4.65,3.85-7.51,8.04-6.4,4.19,1.11,7.38,5.79,7.13,10.43Z"></path><path class="cls-14" d="M1167.56,1101.48l-475.82-127.5,4.51-432.23,471.18,126.26c20.25,5.43,37.35,29.28,37.11,51.77l-3.7,353.96c-.22,20.63-14.72,32.72-33.29,27.74Z"></path><polygon class="cls-17" points="1178.56 1051.05 716.91 923.54 721.84 275.57 1183.49 403.08 1178.56 1051.05"></polygon><polygon class="cls-4" points="1157.35 1068.22 695.7 940.71 700.63 292.74 1162.28 420.25 1157.35 1068.22"></polygon><polygon class="cls-18" points="920.39 551.32 732.66 502.28 734.78 358.42 922.52 407.46 920.39 551.32"></polygon><ellipse class="cls-14" cx="827.43" cy="454.63" rx="48.45" ry="60.35" transform="translate(-111.3 555.2) rotate(-34.9)"></ellipse><path class="cls-4" d="M826.52,484.88h0c-3.28-.83-5.88-4.32-5.77-7.75l1.58-52.52c.1-3.44,2.87-5.57,6.15-4.74h0c3.28,.83,5.88,4.32,5.77,7.75l-1.58,52.52c-.1,3.44-2.87,5.57-6.15,4.74Z"></path><path class="cls-4" d="M796.48,444.54h0c.1-3.26,2.72-5.28,5.83-4.5l50.72,12.81c3.11,.79,5.57,4.09,5.47,7.35h0c-.1,3.26-2.72,5.28-5.83,4.5l-50.72-12.81c-3.11-.79-5.57-4.09-5.47-7.35Z"></path><polygon class="cls-18" points="1123.44 607.47 935.71 558.43 937.84 414.58 1125.57 463.62 1123.44 607.47"></polygon><polygon class="cls-18" points="1124.58 772.18 936.85 723.14 938.98 579.29 1126.71 628.33 1124.58 772.18"></polygon><polygon class="cls-18" points="916.14 718.07 728.41 669.03 730.54 525.18 918.27 574.21 916.14 718.07"></polygon><path class="cls-14" d="M1054.54,470.91c-10.19,.46-17.05,6.64-21.79,12.4-1.47,1.78-4.44,.89-5.88-1.76-4.87-8.97-12.03-20.21-21.83-25.1-18.73-9.34-32.15,5.13-26.77,27.4,5.73,26.9,50.99,79.33,50.99,79.33l1.11,.33s45.24-26,50.96-49.56c5.36-19.14-6.15-43.98-26.79-43.04Z"></path><path class="cls-4" d="M1034.5,532.08s-.09-.03-.14-.04c-1.62-.53-3.01-2.08-3.56-3.93l-7.9-26.85-4.08,10.55c-.57,1.5-2.04,2.19-3.65,1.72l-14.04-4.1c-1.09-.32-1.76-1.26-1.76-2.48h0c0-2.62,2.93-5.05,5.27-4.36l8.37,2.44,6.36-16.43c.58-1.5,2.05-2.19,3.65-1.72,.02,0,.03,0,.05,.01,1.63,.5,3.09,2.09,3.64,3.95l8.07,27.45,3.3-7.45c.62-1.4,2.03-2.02,3.59-1.57l15.14,4.42c1.09,.32,1.76,1.26,1.76,2.48h0c0,2.62-2.93,5.05-5.27,4.36l-9.56-2.79-5.66,12.76c-.63,1.42-2.03,2.02-3.59,1.57Zm-22.27-25.04s0,0,0,.01h0Zm32.34,8.84h0s0,0,0,0Z"></path><path class="cls-14" d="M1156.84,1098.28l-475.54-127.46c-16.72-4.48-31.16-22.59-33.44-41.92l-41.24-349.6,479.5,128.52c14.46,3.88,26.96,19.54,28.93,36.27l41.78,354.19Z"></path><path class="cls-14" d="M860.19,718.07l-244.95-65.66-14.24-120.68c-3.41-18.08,10.98-25.55,23.28-21.13l122.92,32.95c52.7,14.12,101.28,75.25,108.51,136.52l4.48,38.01Z"></path><line class="cls-6" x1="846.68" y1="643.64" x2="660.79" y2="597.72"></line><polygon class="cls-4" points="1509.91 927.27 1245.53 855.58 1249.04 717.06 1513.42 788.76 1509.91 927.27"></polygon><polyline class="cls-7" points="1400.86 824.17 1384.92 836.64 1366.07 821.79 1355.03 863.57 1352.43 763.08 1335.75 823.53 1311.64 805.82 1302.14 814.91 1284.66 792.29 1269.48 806.2 1259.15 803.44"></polyline><polyline class="cls-7" points="1490.15 847.99 1474.21 860.46 1455.37 845.61 1444.33 887.39 1441.73 786.9 1425.05 847.35 1400.86 824.17"></polyline><rect class="cls-15" x="318.86" y="999.01" width="111.89" height="137.98"></rect><path class="cls-2" d="M560.63,803.86h0c1.64,4.13,.35,8.56-2.87,9.86l-13.18,1.74c-3.22,1.3-1.09,.07-2.73-4.06h0c-1.64-4.13-4.91-3.41,.69-7.28l9.19-3.44c1.2-.45,2.45-.73,3.74-.75,2.38-.04,3.87,.7,5.16,3.95Z"></path><path class="cls-4" d="M407.27,815.45l64.99,18.89,66.67-28.7,6.39,12.99s-47.7,48.8-65.04,52.92c-2.56,.61-57.39-8.68-57.39-8.68l-15.62-47.42Z"></path><path class="cls-21" d="M271.69,1281.67c29.73-15.68,81.18-17.21,114.91-3.41,5.76,2.35,10.6,5.01,14.57,7.86,21.07-6.64,49.87-6.14,69.84,2.03,23.7,9.7,25.98,26.49,5.08,37.51-20.08,10.59-54.21,11.96-77.88,3.45-1.38,.86-2.82,1.71-4.38,2.53-29.73,15.68-81.18,17.21-114.91,3.41-33.73-13.8-36.97-37.7-7.24-53.38Z"></path><path class="cls-23" d="M455.57,1297.57l-21.3-21.34c-4.11-4.12-9.68-6.46-15.39-6.34-2.05,.04-4.12,.26-6.03,.65-2.57,.53-3.85,2.19-3.89,4.63l-.4,4.54c-.42,7.6-1.29,10.13,3.85,12.41l30.51,13.54c6.34,4.23,23.5,1.31,12.66-8.1Z"></path><path class="cls-2" d="M412.01,1271.79c.84,5.05,5.36,9.21,10.35,8.71,2.47-.24,4.19-1.68,4.59-6.33-.22-52.25,5.31-95.75,5.13-144.59-.2-54.84-1.84-38.69-2.27-122.75l-50.06-10.87c10.1,60.71,14.43,137.18,14.43,137.18-13.78,56.03,6.86,72.98,17.83,138.65Z"></path><path class="cls-14" d="M374.86,976.97l15.61,128.59c1.95,13.81,1.85,24.8-.76,38.48-3.87,20.25-1.72,60.98,15.48,120.14,7.96,6.33,16.29,6.25,24.95,.68,0,0,8.2-131.35,8.21-156.69,.02-25.33-5.31-161.83-5.31-161.83l-58.17,30.64Z"></path><path class="cls-23" d="M334.08,1302.05l-.62,16.53c-.18,1.73-2.12,10.83-2.93,12.39-2.35,4.5-6.13,6.23-9.76,6.37-4.81,.18-14.37-8.03-10.78-17.81,3.13-8.53,9.32-22.1,9.32-22.1,6.74,3.09,9.87,4.51,14.76,4.64Z"></path><path class="cls-2" d="M319.49,1302.12c-1.01,6.47,9.48,9.5,13.93,3.03,5.71-51.77,15.55-98.59,20.92-146.98,6.03-54.33,10.89-51,20.01-134.29l-54.95,1.93c3.19,61-1.18,137.09-1.18,137.09-20.89,56.42-1.03,66.71,1.28,139.22Z"></path><path class="cls-14" d="M314.57,974.91s5.25,109.91,1.85,134.02c-2.65,18.74-9.38,49.45-12.26,62.21-.94,4.16-1.46,8.38-1.58,12.64-.52,18.72,1.07,70.2,7.71,101.8,5.82,8.71,18.8,7.06,28.61,2.1l22.7-125.66c.34-1.47,17.92-107.33,17.92-107.33,24.16,4.76,28.14-3,31.72-6.9l-18.22-73.92s-82.26,7.94-78.44,1.05Z"></path><path class="cls-22" d="M393.53,813.28c-6.88-.17-13.22-1.12-15.12-2.38-10.68-7.09-22.9-2.44-24.2-1.58l-17.05,7.27c-31.72,10.63-45.58,47.39-46,66.24,0,0,11.33,21.38,12.62,39.16,1.11,15.37,11.13,50.01,8.73,54.97-1.79,3.71-.56,24.74,17.82,32.71,37.22,16.14,70.14-1.44,90.26-9.17,33.23-12.77,21.88-10.53,19.81-35.95-1.3-16-6.18-63.23-6.49-75.92-.31-12.69-5.15-72.09-30.59-74.03l-9.8-1.31Z"></path><path class="cls-2" d="M362.93,820.82l1.4-1.45c3.72,.98,6.99,.52,7.63-3.15l3.63-20.65c.64-3.66-1.87-7.46-5.59-8.44l-1.1-.29c-3.72-.98-13.99-.59-14.63,3.07l-2.13,21.81c-.64,3.66,7.07,8.11,10.79,9.09Z"></path><path class="cls-12" d="M373.55,806.61s-9.01-.75-14.75-9.98c0,0,5.71,13.59,13.91,15.58l.84-5.59Z"></path><path class="cls-2" d="M354.91,763.23c3.29-5.54,8.32-6.48,12.99-3.26,4.57-1.92,10.1,.97,14.19,8.26,5.69,10.15,8.44,26.23,3.64,34.31-2.1,3.53-7.09,5.57-10.25,5.62-2.96,.05-5.55-1.91-8.41-3.01-10.23-3.94-10.41-2.43-14.19-9.19-5.69-10.15-2.77-24.66,2.03-32.73Z"></path><path class="cls-19" d="M361.44,766.9c-3.83,9.72-7.3,27.26-7.88,30.25,0,0-15.73-10.96-14.84-19.65,2.96-28.96,20.09-13.41,20.09-13.41l2.62,2.82Z"></path><path class="cls-19" d="M355.48,753.34c-6.04,1.43-9.71,5.96-11.61,13.9-.24,1.01-2.38,5.59-2.46,6.44l3.88-1.12c-.66,6.86,2.16-3.28,9.07-2.01,10.68-3.9,19.65,11.55,31.75,5.75,1.64-.78,2.82-2.35,3.09-4.14,.37-2.41-.11-5.31-2.56-7.25-7.5-5.95-11.3-9.15-19.51-11.34l-1.99-.31c-3.74-.59-6.94-.57-9.66,.07"></path><path class="cls-2" d="M349.05,790.5c-.25,3.24,2.17,6.14,5.41,6.49s6.06-2,6.31-5.23c.25-3.24-2.17-6.14-5.41-6.49s-6.06,2-6.31,5.23Z"></path><path class="cls-4" d="M373.31,808.2l6.12,1.85s3.35,10.74-1.5,14.91l-9.17-5.74s5.41-5.35,4.56-11.02Z"></path><path class="cls-4" d="M368.75,819.23l-5.28,8.95s-18.56-6.19-19.13-16.58l8.22-4.16s8.98,12.64,16.19,11.79Z"></path><polygon class="cls-4" points="292.85 850.82 283.15 916.2 264.63 977.22 289.94 980.24 315.43 930.29 321.06 885.02 292.85 850.82"></polygon><path class="cls-4" d="M412.57,816.98s17.81,5.76,23.7,48.92,16.65,207.64,13.3,243.64c0,0-5.62,20.93-46.67,20.93l8.66-187.9s.28-98.27-23.23-128.43c-.95-1.22,.06-2.96,1.6-2.76,7.69,1.01,16.54,3.43,22.64,5.6Z"></path><line class="cls-5" x1="430.76" y1="855.15" x2="433.21" y2="865.45"></line><path class="cls-4" d="M336.91,814.67c8.87,6.41,14.83,137.22,13.15,199.54-1.54,57.16-3.62,122.79-3.62,122.79,0,0-44.21,4.37-59.07-14.02,0,0,4.82-235.03,4.64-262.77-.06-10.04,1.23-25,20.58-33.7l24.32-11.83Z"></path><line class="cls-5" x1="323.21" y1="901.77" x2="322.61" y2="862"></line><path class="cls-24" d="M371.02,969.15l.17-1.95-3.49,1.73-.6-1.08-81.32-17.3c-.98-.21-2.79,.25-4.02,1.02l-38.08,23.83,.04-.44-6.96,3.53-.2,2.08h.05c.07,.17,.26,.31,.59,.38l84.62,18c.98,.21,2.79-.25,4.02-1.02l44.1-27.6c.67-.42,1.03-.85,1.07-1.19h0Z"></path><path class="cls-11" d="M321.98,996.91l-84.62-18c-.98-.21-.77-1.01,.46-1.78l44.1-27.6c1.23-.77,3.04-1.23,4.02-1.02l84.62,18c.98,.21,.77,1.01-.46,1.78l-44.1,27.6c-1.23,.77-3.04,1.23-4.02,1.02Z"></path><path class="cls-11" d="M312.14,944.37c-.47-1.5-2.4-3.04-4.33-3.43l-89.38-18.13c-.8-.16-1.46-.1-1.94,.13h0s-.01,0-.01,0c-.17,.08-.32,.19-.43,.32l-2.74,2.56,2.61-.62,10.82,34.82c.47,1.5,2.4,3.04,4.33,3.43l84.51,17.15,2.8,1.56,5.82,14.78c1.68-.05,3.39-2.04,3.39-2.04l-15.45-50.52Z"></path><path class="cls-3" d="M215.81,925.46l89.38,18.13c1.92,.39,3.86,1.92,4.33,3.43l10.94,35.2s0,.05,.01,.07l4.38,14.09c.47,1.5-.71,2.4-2.64,2.01l-89.38-18.13c-1.92-.39-3.86-1.92-4.33-3.43l-10.94-35.2s0-.05-.01-.07l-4.38-14.09c-.47-1.5,.71-2.4,2.64-2.01Z"></path><ellipse class="cls-4" cx="264.43" cy="963.81" rx="5.95" ry="7.91" transform="translate(-639.6 537.68) rotate(-49.42)"></ellipse><path class="cls-2" d="M254.18,988.23h0c-1.15-4.76,.73-8.69,4.17-8.73l13.63,3.39c3.44-.04,5.95-.12,7.1,4.65h0c1.15,4.76-.21,7.5-6.46,7.48l-9.79-.14c-1.27-.02-2.59-.22-3.9-.7-2.43-.89-3.85-2.2-4.75-5.95Z"></path><ellipse class="cls-4" cx="872.32" cy="843.68" rx="67.16" ry="90.24" transform="translate(-326.01 652.01) rotate(-34.96)"></ellipse><path class="cls-14" d="M909.33,881.05c-1.39-10.43-8.03-19.06-12.82-22.72-1.92-1.47-3.89-2.54-5.85-3.97-1.09-.8-2.19-1.6-3.29-2.35h0s-.1-.07-.1-.07c-.87-.59-1.72-1.15-2.55-1.62l-.3-.17v.03s-1.28-.78-1.28-.78c0,0,0,0-.01,.01-.46-.53-.92-1.06-1.38-1.6-.13-.15-.62-.84-.66-.73-.02-.21,.02-.5,.02-.66,0-1.94-.01-3.88-.02-5.81,0-.03-.02-.06-.02-.09,1-.76,1.84-1.77,2.43-3.19,.4-.97,.63-2.05,.78-3.19,2.88,.55,3.6-3.11,3.91-5.67,.24-2.06,.6-7.26-2.45-7.97,.05-.3,.1-.58,.16-.84,.36-1.64,.66-3.32,.64-5.1-.02-1.79-.38-3.7-1.27-5.44-.29-.58-.73-1.2-1.26-1.37,.2-.37,.3-.83,.27-1.41-.28-4.48-4.09-7.66-6.93-9.45-2.48-1.56-5.05-2.78-7.6-3.48-2.55-.62-5.08-.72-7.49-.42-2.76,.34-6.4,1.6-6.37,6.02,0,.57,.15,1.09,.37,1.57-.53-.1-.92,.31-1.18,.74-.77,1.32-1.01,3.08-.9,4.88,.11,1.81,.54,3.68,1.02,5.53,.07,.29,.15,.6,.22,.93-3.06-.87-2.32,4.62-1.92,6.84,.5,2.77,1.49,6.87,4.39,7.81,.23,1.23,.55,2.46,1.03,3.65,.7,1.75,1.63,3.22,2.71,4.51,0,.03-.02,.04-.02,.08,.13,1.97,.27,3.94,.4,5.91,.01,.17,.07,.48,.06,.68-.05-.13-.5,.32-.62,.4-.43,.3-.86,.6-1.29,.91,0,0,0-.01-.01-.02l-1.24,.14v-.03s-.31,.02-.31,.02c-.81,.05-1.64,.17-2.48,.32h-.1s0,.02,0,.02c-1.06,.19-2.13,.43-3.18,.68-1.9,.44-3.82,.51-5.67,1-4.62,1.23-10.76,6.56-11.41,16.47-.31,4.64,2.24,8.38,6.61,9.66l30.48,8.27,30.45,7.46c4.36,.98,6.69-1.51,6.04-6.39Z"></path></g></g></g></g></svg>